<svg width="170" height="170" viewBox="0 0 170 170" fill="none" xmlns="http://www.w3.org/2000/svg">
<g filter="url(#filter0_d_86_921)">
<circle cx="85" cy="83" r="80" fill="#EBECEE"/>
</g>
<path d="M85 106.75C87.8731 106.75 90.6286 105.749 92.6603 103.968C94.6919 102.186 95.8333 99.7696 95.8333 97.25C95.8333 94.7304 94.6919 92.3141 92.6603 90.5325C90.6286 88.7509 87.8731 87.75 85 87.75C82.1268 87.75 79.3713 88.7509 77.3396 90.5325C75.308 92.3141 74.1666 94.7304 74.1666 97.25C74.1666 99.7696 75.308 102.186 77.3396 103.968C79.3713 105.749 82.1268 106.75 85 106.75ZM117.5 64C120.373 64 123.129 65.0009 125.16 66.7825C127.192 68.5641 128.333 70.9804 128.333 73.5V121C128.333 123.52 127.192 125.936 125.16 127.718C123.129 129.499 120.373 130.5 117.5 130.5H52.5C49.6268 130.5 46.8713 129.499 44.8396 127.718C42.808 125.936 41.6666 123.52 41.6666 121V73.5C41.6666 70.9804 42.808 68.5641 44.8396 66.7825C46.8713 65.0009 49.6268 64 52.5 64H57.9166V54.5C57.9166 48.2011 60.77 42.1602 65.8492 37.7062C70.9283 33.2522 77.817 30.75 85 30.75C88.5566 30.75 92.0784 31.3643 95.3643 32.5579C98.6502 33.7514 101.636 35.5008 104.151 37.7062C106.666 39.9116 108.661 42.5298 110.022 45.4113C111.383 48.2928 112.083 51.3811 112.083 54.5V64H117.5ZM85 40.25C80.6902 40.25 76.5569 41.7513 73.5095 44.4237C70.462 47.0961 68.75 50.7207 68.75 54.5V64H101.25V54.5C101.25 50.7207 99.5379 47.0961 96.4904 44.4237C93.443 41.7513 89.3097 40.25 85 40.25Z" fill="#5B8291"/>
<defs>
<filter id="filter0_d_86_921" x="0" y="0" width="170" height="170" filterUnits="userSpaceOnUse" color-interpolation-filters="sRGB">
<feFlood flood-opacity="0" result="BackgroundImageFix"/>
<feColorMatrix in="SourceAlpha" type="matrix" values="0 0 0 0 0 0 0 0 0 0 0 0 0 0 0 0 0 0 127 0" result="hardAlpha"/>
<feOffset dy="2"/>
<feGaussianBlur stdDeviation="2.5"/>
<feComposite in2="hardAlpha" operator="out"/>
<feColorMatrix type="matrix" values="0 0 0 0 0 0 0 0 0 0 0 0 0 0 0 0 0 0 0.4 0"/>
<feBlend mode="normal" in2="BackgroundImageFix" result="effect1_dropShadow_86_921"/>
<feBlend mode="normal" in="SourceGraphic" in2="effect1_dropShadow_86_921" result="shape"/>
</filter>
</defs>
</svg>
