<svg width="54" height="54" viewBox="0 0 54 54" fill="none" xmlns="http://www.w3.org/2000/svg">
<g filter="url(#filter0_d_609_530)">
<circle cx="27" cy="25" r="23" fill="#FFC107"/>
</g>
<path d="M27.5001 30.8679L32.5146 33.9008C33.433 34.4567 34.5567 33.635 34.3151 32.5958L32.9859 26.8925L37.4205 23.05C38.2301 22.3492 37.7951 21.02 36.7317 20.9354L30.8955 20.44L28.6117 15.0508C28.2009 14.0721 26.7992 14.0721 26.3884 15.0508L24.1046 20.4279L18.2684 20.9233C17.2051 21.0079 16.7701 22.3371 17.5796 23.0379L22.0142 26.8804L20.6851 32.5838C20.4434 33.6229 21.5671 34.4446 22.4855 33.8888L27.5001 30.8679Z" fill="#EBECEE"/>
<defs>
<filter id="filter0_d_609_530" x="0" y="0" width="54" height="54" filterUnits="userSpaceOnUse" color-interpolation-filters="sRGB">
<feFlood flood-opacity="0" result="BackgroundImageFix"/>
<feColorMatrix in="SourceAlpha" type="matrix" values="0 0 0 0 0 0 0 0 0 0 0 0 0 0 0 0 0 0 127 0" result="hardAlpha"/>
<feOffset dy="2"/>
<feGaussianBlur stdDeviation="2"/>
<feComposite in2="hardAlpha" operator="out"/>
<feColorMatrix type="matrix" values="0 0 0 0 0 0 0 0 0 0 0 0 0 0 0 0 0 0 0.25 0"/>
<feBlend mode="normal" in2="BackgroundImageFix" result="effect1_dropShadow_609_530"/>
<feBlend mode="normal" in="SourceGraphic" in2="effect1_dropShadow_609_530" result="shape"/>
</filter>
</defs>
</svg>
