<svg width="27" height="26" viewBox="0 0 27 26" fill="none" xmlns="http://www.w3.org/2000/svg">
<path d="M25.9793 21.0653V21.0598C25.9793 21.0598 21.0005 16.2181 20.9975 16.2158C20.6027 15.8312 19.9714 15.8396 19.5831 16.2183L17.2913 18.4587C16.4004 19.3263 15.2516 18.5564 13.0464 16.8058C11.5874 15.6475 9.90879 14.09 8.45332 12.3341C7.4319 11.1021 6.52866 9.80826 7.46177 8.90003C7.46419 8.89767 9.76293 6.66547 9.76249 6.66311L9.76425 6.65841C10.1768 6.25679 10.1368 5.64153 9.76008 5.27435V5.26879C9.76008 5.26879 4.63738 0.287702 4.63453 0.284708C4.2398 -0.0995872 3.60871 -0.0910331 3.22013 0.287274L0.911506 2.53488C-0.0396231 3.69375 -2.15341 9.21696 6.90867 18.2604C16.4551 27.7878 22.6153 25.7498 23.6758 24.6747C23.6758 24.6747 25.982 22.456 25.982 22.4539L25.984 22.4494C26.3965 22.0475 26.3558 21.4327 25.9793 21.0653V21.0653Z" fill="#5B8291"/>
</svg>
