<svg width="26" height="29" viewBox="0 0 26 29" fill="none" xmlns="http://www.w3.org/2000/svg">
<path d="M20.625 16.5C21.0925 16.5 21.5462 16.555 22 16.6238V12.375C22 11.6457 21.7103 10.9462 21.1945 10.4305C20.6788 9.91473 19.9793 9.625 19.25 9.625H17.875V6.875C17.875 3.08 14.795 0 11 0C7.205 0 4.125 3.08 4.125 6.875V9.625H2.75C2.02065 9.625 1.32118 9.91473 0.805456 10.4305C0.289731 10.9462 0 11.6457 0 12.375V26.125C0 27.6513 1.22375 28.875 2.75 28.875H13.4887C12.7875 27.665 12.375 26.2625 12.375 24.75C12.375 20.1988 16.0737 16.5 20.625 16.5ZM6.875 6.875C6.875 4.5925 8.7175 2.75 11 2.75C13.2825 2.75 15.125 4.5925 15.125 6.875V9.625H6.875V6.875ZM11 22C10.4561 22 9.92442 21.8387 9.47218 21.5365C9.01995 21.2344 8.66747 20.8049 8.45933 20.3024C8.25119 19.7999 8.19673 19.2469 8.30284 18.7135C8.40895 18.1801 8.67086 17.6901 9.05546 17.3055C9.44005 16.9209 9.93005 16.659 10.4635 16.5528C10.9969 16.4467 11.5499 16.5012 12.0524 16.7093C12.5549 16.9175 12.9844 17.2699 13.2865 17.7222C13.5887 18.1744 13.75 18.7061 13.75 19.25C13.75 20.7763 12.5262 22 11 22ZM25.4375 22.3438L18.9062 28.875L15.125 24.75L16.72 23.155L18.9062 25.3413L23.8425 20.405L25.4375 22.3438Z" fill="#5B8291"/>
</svg>
