<svg width="28" height="28" viewBox="0 0 28 28" fill="none" xmlns="http://www.w3.org/2000/svg">
<path d="M7.00004 16.3333H9.85837L16.7417 9.50832C16.8584 9.39165 16.9167 9.24582 16.9167 9.07082C16.9167 8.89582 16.8584 8.74998 16.7417 8.63332L14.7 6.59165C14.5834 6.47498 14.4375 6.41665 14.2625 6.41665C14.0875 6.41665 13.9417 6.47498 13.825 6.59165L7.00004 13.475V16.3333ZM12.25 16.3333H21V14H14.5834L12.25 16.3333ZM2.33337 25.6667V4.66665C2.33337 4.02498 2.56204 3.47548 3.01937 3.01815C3.47671 2.56081 4.02582 2.33254 4.66671 2.33331H23.3334C23.975 2.33331 24.5245 2.56198 24.9819 3.01932C25.4392 3.47665 25.6675 4.02576 25.6667 4.66665V18.6666C25.6667 19.3083 25.438 19.8578 24.9807 20.3151C24.5234 20.7725 23.9743 21.0008 23.3334 21H7.00004L2.33337 25.6667Z" fill="#5B8291"/>
</svg>
