<svg width="27" height="31" viewBox="0 0 27 31" fill="none" xmlns="http://www.w3.org/2000/svg">
<path d="M18.4669 3.41557e-06C19.0867 -0.0015069 19.5768 0.498028 19.5782 1.16407L19.5797 2.29938C23.6011 2.62635 26.2576 5.46916 26.2619 9.82873L26.2778 22.5896C26.2835 27.3427 23.4051 30.2673 18.7912 30.2748L7.52112 30.29C2.9361 30.296 0.02164 27.3019 0.0158745 22.5351L9.67518e-06 9.9241C-0.00574612 5.53576 2.55702 2.70052 6.57846 2.31755L6.57702 1.18224C6.57558 0.516193 7.05124 0.0151443 7.68544 0.0151443C8.31965 0.0136305 8.7953 0.513165 8.79674 1.17921L8.79818 2.23883L17.36 2.22672L17.3585 1.1671C17.3571 0.501055 17.8327 0.00152059 18.4669 3.41557e-06ZM19.055 21.4936H19.0406C18.3776 21.5103 17.8457 22.087 17.8601 22.7833C17.8616 23.4797 18.3963 24.0534 19.0593 24.0685C19.7354 24.067 20.2831 23.4903 20.2816 22.7788C20.2816 22.0673 19.7325 21.4936 19.055 21.4936ZM7.17808 21.4951C6.51504 21.5254 5.99615 22.1021 5.99759 22.7985C6.02786 23.4948 6.57558 24.0397 7.23861 24.008C7.88867 23.9777 8.40613 23.4009 8.37586 22.7046C8.36145 22.0234 7.8267 21.4936 7.17808 21.4951ZM13.1165 21.4876C12.4535 21.5194 11.9361 22.0946 11.9361 22.7909C11.9663 23.4872 12.5141 24.0307 13.1771 24.0004C13.8257 23.9686 14.3446 23.3934 14.3143 22.6955C14.2999 22.0159 13.7652 21.4861 13.1165 21.4876ZM7.17087 16.0457C6.50784 16.0759 5.99038 16.6527 5.99182 17.349C6.02065 18.0453 6.56982 18.5903 7.23285 18.5585C7.88147 18.5282 8.39892 17.9515 8.36865 17.2551C8.35424 16.574 7.82093 16.0442 7.17087 16.0457ZM13.1108 15.9927C12.4478 16.023 11.9289 16.5997 11.9303 17.296C11.9591 17.9923 12.5083 18.5358 13.1713 18.5055C13.8199 18.4737 14.3374 17.8985 14.3086 17.2022C14.2927 16.521 13.7594 15.9912 13.1108 15.9927ZM19.0493 16.0003C18.3862 16.0154 17.8673 16.5755 17.8688 17.2718V17.2885C17.8832 17.9848 18.4309 18.5131 19.0954 18.4979C19.744 18.4813 20.2615 17.9045 20.247 17.2082C20.2168 16.5422 19.6964 15.9987 19.0493 16.0003ZM17.3628 4.55788L8.80107 4.56999L8.80251 5.79461C8.80251 6.44703 8.32829 6.96171 7.69409 6.96171C7.05988 6.96322 6.58279 6.45006 6.58279 5.79764L6.58135 4.63206C3.77066 4.92421 2.21542 6.63776 2.21973 9.92107L2.22118 10.3918L24.0436 10.3616V9.83176C23.9816 6.57721 22.4077 4.86971 19.5826 4.61541L19.584 5.78099C19.584 6.4319 19.0954 6.94808 18.4756 6.94808C17.8414 6.9496 17.3643 6.43492 17.3643 5.78401L17.3628 4.55788Z" fill="#5B8291"/>
</svg>
