<svg width="31" height="32" viewBox="0 0 31 32" fill="none" xmlns="http://www.w3.org/2000/svg">
<path fill-rule="evenodd" clip-rule="evenodd" d="M4.52087 12.7573V19.2427C4.52087 22.3013 4.52087 23.8293 5.45346 24.78C6.2995 25.6427 7.61571 25.7213 10.0983 25.7293C9.96783 24.8293 9.94071 23.756 9.93296 22.492C9.93296 22.3634 9.95752 22.236 10.0052 22.1172C10.053 21.9983 10.1229 21.8904 10.2111 21.7995C10.2993 21.7086 10.4039 21.6366 10.5191 21.5874C10.6343 21.5383 10.7577 21.5132 10.8823 21.5133C11.007 21.5117 11.1308 21.5355 11.2465 21.5833C11.3623 21.6311 11.4678 21.702 11.5571 21.7919C11.6463 21.8818 11.7175 21.9889 11.7666 22.1072C11.8158 22.2255 11.8418 22.3526 11.8433 22.4813C11.8511 23.9 11.886 24.9053 12.0242 25.668C12.1572 26.404 12.369 26.828 12.679 27.1453C13.0317 27.5053 13.5264 27.7387 14.4615 27.8653C15.4225 27.9987 16.6961 28 18.5238 28H19.7961C21.6238 28 22.8974 27.9973 23.8597 27.8667C24.7936 27.7387 25.2883 27.504 25.6396 27.1453C25.9923 26.7853 26.2222 26.2813 26.3475 25.3293C26.4766 24.3507 26.4792 23.0507 26.4792 21.1893V10.8107C26.4792 8.948 26.4766 7.65067 26.3475 6.66933C26.2222 5.71867 25.9923 5.21333 25.6409 4.856C25.2883 4.496 24.7936 4.26133 23.8584 4.13333C22.8974 4.00267 21.6238 4 19.7961 4H18.5238C16.6961 4 15.4225 4.00267 14.4602 4.13333C13.5264 4.26133 13.0317 4.496 12.679 4.85467C12.369 5.17067 12.1572 5.596 12.0242 6.332C11.886 7.09467 11.8511 8.1 11.8433 9.51867C11.8418 9.64737 11.8158 9.77449 11.7666 9.8928C11.7175 10.0111 11.6463 10.1182 11.5571 10.2081C11.4678 10.298 11.3623 10.3689 11.2465 10.4167C11.1308 10.4645 11.007 10.4883 10.8823 10.4867C10.7577 10.4868 10.6343 10.4617 10.5191 10.4126C10.4039 10.3634 10.2993 10.2914 10.2111 10.2005C10.1229 10.1096 10.053 10.0017 10.0052 9.88283C9.95752 9.764 9.93296 9.63663 9.93296 9.508C9.94071 8.244 9.96783 7.17067 10.0983 6.27067C7.61571 6.27867 6.30079 6.35733 5.45346 7.22C4.52087 8.17067 4.52087 9.7 4.52087 12.7573ZM7.66479 16.688C7.57622 16.5983 7.50586 16.4912 7.45783 16.3731C7.40979 16.2549 7.38506 16.1281 7.38506 16C7.38506 15.8719 7.40979 15.7451 7.45783 15.6269C7.50586 15.5088 7.57622 15.4017 7.66479 15.312L10.2094 12.7173C10.3896 12.5344 10.6322 12.432 10.8849 12.432C11.1376 12.432 11.3802 12.5344 11.5605 12.7173C11.649 12.8071 11.7194 12.9141 11.7674 13.0323C11.8155 13.1504 11.8402 13.2772 11.8402 13.4053C11.8402 13.5334 11.8155 13.6603 11.7674 13.7784C11.7194 13.8965 11.649 14.0036 11.5605 14.0933L10.6434 15.0267H19.7961C20.3231 15.0267 20.752 15.4627 20.752 16C20.752 16.5373 20.3231 16.9733 19.7961 16.9733H10.6434L11.5605 17.9067C11.649 17.9964 11.7194 18.1035 11.7674 18.2216C11.8155 18.3397 11.8402 18.4666 11.8402 18.5947C11.8402 18.7228 11.8155 18.8496 11.7674 18.9677C11.7194 19.0859 11.649 19.1929 11.5605 19.2827C11.3802 19.4656 11.1376 19.568 10.8849 19.568C10.6322 19.568 10.3896 19.4656 10.2094 19.2827L7.66479 16.688Z" fill="#5B8291"/>
</svg>
