<svg width="18" height="18" viewBox="0 0 18 18" fill="none" xmlns="http://www.w3.org/2000/svg">
<path d="M14.25 3.75L10.2 7.8M14.25 3.75H10.5M14.25 3.75V7.5M3.75 10.5C3.75 11.4946 4.14509 12.4484 4.84835 13.1517C5.55161 13.8549 6.50544 14.25 7.5 14.25C8.49456 14.25 9.44839 13.8549 10.1517 13.1517C10.8549 12.4484 11.25 11.4946 11.25 10.5C11.25 9.50544 10.8549 8.55161 10.1517 7.84835C9.44839 7.14509 8.49456 6.75 7.5 6.75C6.50544 6.75 5.55161 7.14509 4.84835 7.84835C4.14509 8.55161 3.75 9.50544 3.75 10.5Z" stroke="#30444F" stroke-width="2" stroke-linecap="round" stroke-linejoin="round"/>
</svg>
