<svg width="38" height="35" viewBox="0 0 38 35" fill="none" xmlns="http://www.w3.org/2000/svg">
<path d="M19 24.7916C19.8399 24.7916 20.6453 24.4844 21.2392 23.9374C21.8331 23.3904 22.1667 22.6485 22.1667 21.875C22.1667 21.1014 21.8331 20.3596 21.2392 19.8126C20.6453 19.2656 19.8399 18.9583 19 18.9583C18.1602 18.9583 17.3547 19.2656 16.7609 19.8126C16.167 20.3596 15.8334 21.1014 15.8334 21.875C15.8334 22.6485 16.167 23.3904 16.7609 23.9374C17.3547 24.4844 18.1602 24.7916 19 24.7916ZM28.5 11.6666C29.3399 11.6666 30.1453 11.9739 30.7392 12.5209C31.3331 13.0679 31.6667 13.8098 31.6667 14.5833V29.1666C31.6667 29.9402 31.3331 30.6821 30.7392 31.229C30.1453 31.776 29.3399 32.0833 28.5 32.0833H9.50004C8.66019 32.0833 7.85473 31.776 7.26087 31.229C6.667 30.6821 6.33337 29.9402 6.33337 29.1666V14.5833C6.33337 13.8098 6.667 13.0679 7.26087 12.5209C7.85473 11.9739 8.66019 11.6666 9.50004 11.6666H11.0834V8.74998C11.0834 6.81611 11.9174 4.96145 13.4021 3.59399C14.8868 2.22654 16.9004 1.45831 19 1.45831C20.0397 1.45831 21.0691 1.64692 22.0296 2.01336C22.9901 2.3798 23.8628 2.9169 24.598 3.59399C25.3331 4.27109 25.9162 5.07491 26.3141 5.95958C26.7119 6.84425 26.9167 7.79242 26.9167 8.74998V11.6666H28.5ZM19 4.37498C17.7403 4.37498 16.5321 4.83592 15.6413 5.65639C14.7505 6.47686 14.25 7.58966 14.25 8.74998V11.6666H23.75V8.74998C23.75 7.58966 23.2496 6.47686 22.3588 5.65639C21.468 4.83592 20.2598 4.37498 19 4.37498Z" fill="#5B8291"/>
</svg>
