<svg width="35" height="33" viewBox="0 0 35 33" fill="none" xmlns="http://www.w3.org/2000/svg">
<path d="M30.625 2.75H8.74996C7.97641 2.75 7.23455 3.03973 6.68756 3.55546C6.14058 4.07118 5.83329 4.77065 5.83329 5.5V9.625H2.91663V12.375H5.83329V15.125H2.91663V17.875H5.83329V20.625H2.91663V23.375H5.83329V27.5C5.83329 28.2293 6.14058 28.9288 6.68756 29.4445C7.23455 29.9603 7.97641 30.25 8.74996 30.25H30.625C31.0117 30.25 31.3827 30.1051 31.6562 29.8473C31.9296 29.5894 32.0833 29.2397 32.0833 28.875V4.125C32.0833 3.76033 31.9296 3.41059 31.6562 3.15273C31.3827 2.89487 31.0117 2.75 30.625 2.75ZM18.9583 6.87363C21.3616 6.87363 23.3333 8.73125 23.3333 10.9986C23.3291 12.0915 22.8668 13.1386 22.0473 13.9115C21.2278 14.6845 20.1174 15.1207 18.9583 15.125C16.5564 15.125 14.5833 13.2646 14.5833 10.9986C14.5833 8.73125 16.5564 6.87363 18.9583 6.87363ZM27.7083 24.75H10.2083V23.7188C10.2083 20.6676 14.1531 17.5312 18.9583 17.5312C23.7635 17.5312 27.7083 20.6676 27.7083 23.7188V24.75Z" fill="#30444F" fill-opacity="0.7"/>
</svg>
