<svg width="39" height="36" viewBox="0 0 39 36" fill="none" xmlns="http://www.w3.org/2000/svg">
<path d="M15.5391 28.6852H22.2422V22.8757H15.5391V28.6852ZM18.8906 31.6867C21.1989 31.6867 21.9168 30.5314 22.141 29.8125H15.6402C15.8645 30.5325 16.5823 31.6867 18.8906 31.6867ZM18.8906 3.18712C16.628 3.18712 14.458 4.0168 12.8581 5.49365C11.2582 6.9705 10.3594 8.97354 10.3594 11.0621C10.3594 15.4046 15.1673 16.6162 15.5062 21.7496H17.054C17.0442 21.7204 17.0259 21.6934 17.0198 21.6596L14.5823 9.28799C14.5594 9.15575 14.5881 9.02029 14.6634 8.90579C14.7386 8.79129 14.8555 8.70521 14.9932 8.6629C15.1308 8.62059 15.2803 8.62481 15.4149 8.67481C15.5495 8.72481 15.6604 8.81733 15.728 8.93587L16.4019 10.1801L17.0759 8.93474C17.1267 8.84173 17.2045 8.76356 17.3005 8.70894C17.3966 8.65432 17.5072 8.6254 17.6201 8.6254C17.7329 8.6254 17.8435 8.65432 17.9396 8.70894C18.0357 8.76356 18.1135 8.84173 18.1642 8.93474L18.8382 10.179L19.5122 8.93362C19.5623 8.83992 19.6399 8.76103 19.736 8.70587C19.8322 8.65072 19.9431 8.62148 20.0564 8.62148C20.1696 8.62148 20.2805 8.65072 20.3767 8.70587C20.4729 8.76103 20.5504 8.83992 20.6005 8.93362L21.2757 10.1779L21.9497 8.93249C22.0165 8.81347 22.1272 8.72038 22.2618 8.67002C22.3964 8.61965 22.546 8.61532 22.6838 8.65779C22.8215 8.70027 22.9383 8.78676 23.0131 8.90169C23.0879 9.01661 23.1157 9.15241 23.0917 9.28462L20.6542 21.6574C20.6493 21.6911 20.6298 21.717 20.62 21.7451H22.2714C22.6102 16.6129 27.4194 15.4001 27.4194 11.0576C27.4194 6.71062 23.5999 3.18262 18.8882 3.18262L18.8906 3.18712ZM21.2769 11.9992C21.1641 11.9997 21.0534 11.9709 20.9573 11.9162C20.8612 11.8615 20.7837 11.7831 20.7334 11.6899L20.0582 10.4467L19.3842 11.691C19.333 11.7839 19.2549 11.862 19.1586 11.9165C19.0623 11.9711 18.9516 12 18.8386 12.0001C18.7256 12.0003 18.6148 11.9716 18.5184 11.9172C18.422 11.8628 18.3437 11.7849 18.2922 11.6921L17.6182 10.449L16.9443 11.6932C16.8942 11.7867 16.8167 11.8654 16.7206 11.9202C16.6245 11.9751 16.5137 12.004 16.4007 12.0037H16.3556L18.1289 21.0037H19.5512L21.3232 12.0037H21.2769V11.9992Z" fill="#5B8291"/>
</svg>
