<svg width="160" height="160" viewBox="0 0 160 160" fill="none" xmlns="http://www.w3.org/2000/svg">
<path d="M160 80C160 124.183 124.183 160 80 160C35.8172 160 0 124.183 0 80C0 35.8172 35.8172 0 80 0C124.183 0 160 35.8172 160 80Z" fill="#EBECEE"/>
<path d="M129.77 65.052L114.983 54.8296V46.2197C114.983 45.4128 114.644 44.639 114.039 44.0685C113.435 43.4979 112.616 43.1774 111.761 43.1774H98.1663L81.4462 31.586C80.8945 31.2052 80.2288 31 79.5455 31C78.8621 31 78.1965 31.2052 77.6447 31.586L60.9247 43.1774H47.3296C46.4751 43.1774 45.6557 43.4979 45.0515 44.0685C44.4474 44.639 44.108 45.4128 44.108 46.2197V54.8296L29.3209 65.052C28.9104 65.3352 28.5768 65.7061 28.3472 66.1344C28.1177 66.5627 27.9987 67.0363 28 67.5163V119.237C28 121.657 29.0183 123.979 30.8308 125.69C32.6433 127.402 35.1015 128.364 37.6648 128.364H121.426C123.989 128.364 126.448 127.402 128.26 125.69C130.073 123.979 131.091 121.657 131.091 119.237V67.5163C131.092 67.0363 130.973 66.5627 130.744 66.1344C130.514 65.7061 130.18 65.3352 129.77 65.052ZM114.983 62.3747L122.07 67.2729L114.983 71.2584V62.3747ZM79.5455 37.8228L87.2773 43.1774H71.8136L79.5455 37.8228ZM50.5511 49.2621H108.54V74.9093L79.5455 91.338L50.5511 74.9093V49.2621ZM44.108 62.3747V71.2888L37.0205 67.2729L44.108 62.3747ZM124.648 119.237C124.648 120.043 124.308 120.817 123.704 121.388C123.1 121.958 122.281 122.279 121.426 122.279H37.6648C36.8104 122.279 35.9909 121.958 35.3868 121.388C34.7826 120.817 34.4432 120.043 34.4432 119.237V72.9013L77.9025 97.514C78.3922 97.7811 78.9477 97.9216 79.5132 97.9216C80.0787 97.9216 80.6343 97.7811 81.124 97.514L124.648 72.9013V119.237Z" fill="#5B8291"/>
<path d="M60.9797 56.4607C60.9797 55.9084 61.4275 55.4607 61.9797 55.4607H96.468C97.0202 55.4607 97.468 55.9084 97.468 56.4607V59.3819C97.468 59.9342 97.0202 60.3819 96.468 60.3819H61.9797C61.4275 60.3819 60.9797 59.9342 60.9797 59.3819V56.4607Z" fill="#5B8291"/>
<path d="M60.9797 63.8424C60.9797 63.2902 61.4275 62.8424 61.9797 62.8424H96.468C97.0202 62.8424 97.468 63.2902 97.468 63.8424V66.7636C97.468 67.3159 97.0202 67.7636 96.468 67.7636H61.9797C61.4275 67.7636 60.9797 67.3159 60.9797 66.7636V63.8424Z" fill="#5B8291"/>
<path d="M60.9797 71.2242C60.9797 70.6719 61.4275 70.2242 61.9797 70.2242H96.468C97.0202 70.2242 97.468 70.6719 97.468 71.2242V74.1454C97.468 74.6977 97.0202 75.1454 96.468 75.1454H61.9797C61.4275 75.1454 60.9797 74.6977 60.9797 74.1454V71.2242Z" fill="#5B8291"/>
</svg>
