<svg width="33" height="33" viewBox="0 0 33 33" fill="none" xmlns="http://www.w3.org/2000/svg">
<path d="M26.125 17.875C26.5925 17.875 27.0462 17.93 27.5 17.9988V13.75C27.5 13.0207 27.2103 12.3212 26.6945 11.8055C26.1788 11.2897 25.4793 11 24.75 11H23.375V8.25C23.375 4.455 20.295 1.375 16.5 1.375C12.705 1.375 9.625 4.455 9.625 8.25V11H8.25C7.52065 11 6.82118 11.2897 6.30546 11.8055C5.78973 12.3212 5.5 13.0207 5.5 13.75V27.5C5.5 29.0263 6.72375 30.25 8.25 30.25H18.9887C18.2875 29.04 17.875 27.6375 17.875 26.125C17.875 21.5738 21.5737 17.875 26.125 17.875ZM12.375 8.25C12.375 5.9675 14.2175 4.125 16.5 4.125C18.7825 4.125 20.625 5.9675 20.625 8.25V11H12.375V8.25ZM16.5 23.375C15.9561 23.375 15.4244 23.2137 14.9722 22.9115C14.5199 22.6094 14.1675 22.1799 13.9593 21.6774C13.7512 21.1749 13.6967 20.6219 13.8028 20.0885C13.9089 19.5551 14.1709 19.0651 14.5555 18.6805C14.9401 18.2959 15.4301 18.034 15.9635 17.9278C16.4969 17.8217 17.0499 17.8762 17.5524 18.0843C18.0549 18.2925 18.4844 18.6449 18.7865 19.0972C19.0887 19.5494 19.25 20.0811 19.25 20.625C19.25 22.1513 18.0262 23.375 16.5 23.375ZM30.9375 23.7188L24.4062 30.25L20.625 26.125L22.22 24.53L24.4062 26.7163L29.3425 21.78L30.9375 23.7188Z" fill="#5B8291"/>
</svg>
