<svg width="30" height="32" viewBox="0 0 30 32" fill="none" xmlns="http://www.w3.org/2000/svg">
<path d="M23.75 4H6.2375C4.8625 4 3.75 5.2 3.75 6.66667L3.7625 25.3333C3.7625 26.8 4.875 28 6.25 28H18.75L26.25 20V6.66667C26.25 5.2 25.125 4 23.75 4ZM10 10.6667H20C20.6875 10.6667 21.25 11.2667 21.25 12C21.25 12.7333 20.6875 13.3333 20 13.3333H10C9.3125 13.3333 8.75 12.7333 8.75 12C8.75 11.2667 9.3125 10.6667 10 10.6667ZM13.75 18.6667H10C9.3125 18.6667 8.75 18.0667 8.75 17.3333C8.75 16.6 9.3125 16 10 16H13.75C14.4375 16 15 16.6 15 17.3333C15 18.0667 14.4375 18.6667 13.75 18.6667ZM17.5 26V20C17.5 19.2667 18.0625 18.6667 18.75 18.6667H24.375L17.5 26Z" fill="#5B8291"/>
</svg>
