<svg width="30" height="30" viewBox="0 0 30 30" fill="none" xmlns="http://www.w3.org/2000/svg">
<path d="M26.3127 23.3836L16.3266 4.83867C15.6188 3.52383 13.7332 3.52383 13.0248 4.83867L3.03927 23.3836C2.88558 23.669 2.80853 23.9894 2.81564 24.3136C2.82274 24.6377 2.91376 24.9544 3.0798 25.2328C3.24585 25.5113 3.48125 25.7419 3.76302 25.9022C4.0448 26.0625 4.36332 26.147 4.68751 26.1475H24.6615C24.986 26.1475 25.3049 26.0634 25.587 25.9033C25.8692 25.7432 26.105 25.5126 26.2714 25.2341C26.4378 24.9556 26.5291 24.6386 26.5363 24.3143C26.5436 23.9899 26.4665 23.6693 26.3127 23.3836ZM14.676 23.2764C14.4442 23.2764 14.2176 23.2076 14.0249 23.0789C13.8322 22.9501 13.682 22.7671 13.5933 22.5529C13.5046 22.3388 13.4814 22.1032 13.5266 21.8759C13.5718 21.6485 13.6835 21.4397 13.8473 21.2759C14.0112 21.112 14.22 21.0004 14.4474 20.9551C14.6747 20.9099 14.9103 20.9331 15.1244 21.0218C15.3386 21.1105 15.5216 21.2607 15.6504 21.4534C15.7791 21.6461 15.8479 21.8727 15.8479 22.1045C15.8479 22.4153 15.7244 22.7134 15.5046 22.9331C15.2849 23.1529 14.9868 23.2764 14.676 23.2764ZM15.9486 11.4902L15.6123 18.6387C15.6123 18.8873 15.5135 19.1258 15.3377 19.3016C15.1619 19.4774 14.9235 19.5762 14.6748 19.5762C14.4262 19.5762 14.1877 19.4774 14.0119 19.3016C13.8361 19.1258 13.7373 18.8873 13.7373 18.6387L13.401 11.4932C13.3934 11.3224 13.4203 11.1519 13.4801 10.9918C13.5398 10.8316 13.6312 10.6852 13.7488 10.5611C13.8663 10.437 14.0076 10.3379 14.1643 10.2696C14.321 10.2013 14.4898 10.1653 14.6608 10.1637H14.6731C14.8451 10.1636 15.0154 10.1984 15.1737 10.2659C15.332 10.3334 15.4749 10.4323 15.5939 10.5566C15.7129 10.6809 15.8055 10.8281 15.866 10.9891C15.9266 11.1502 15.9539 11.3218 15.9463 11.4938L15.9486 11.4902Z" fill="#EBECEE"/>
</svg>
