<svg width="28" height="31" viewBox="0 0 28 31" fill="none" xmlns="http://www.w3.org/2000/svg">
<path d="M23.625 0H2.625C1.18125 0 0 1.30781 0 2.90625V28.0938C0 29.6922 1.18125 31 2.625 31H23.625C25.0687 31 26.25 29.6922 26.25 28.0938V2.90625C26.25 1.30781 25.0687 0 23.625 0ZM22.75 27.125H3.5V3.875H22.75V27.125ZM7 17.4375H19.25V19.375H7V17.4375ZM7 21.3125H19.25V23.25H7V21.3125ZM8.75 8.71875C8.75011 8.33697 8.81815 7.95895 8.95022 7.60628C9.08229 7.25361 9.2758 6.93319 9.51972 6.66332C9.76364 6.39345 10.0532 6.17941 10.3718 6.03343C10.6904 5.88744 11.0319 5.81237 11.3767 5.8125C11.7216 5.81263 12.063 5.88795 12.3816 6.03417C12.7001 6.18039 12.9895 6.39464 13.2333 6.66469C13.477 6.93474 13.6703 7.2553 13.8022 7.60807C13.9341 7.96084 14.0019 8.33891 14.0018 8.72069C14.0015 9.49173 13.7246 10.2311 13.232 10.7761C12.7394 11.3211 12.0714 11.6272 11.375 11.6269C10.6786 11.6267 10.0108 11.3201 9.51848 10.7747C9.0262 10.2294 8.74977 9.48979 8.75 8.71875ZM13.125 11.625H9.625C8.18125 11.625 7 12.4969 7 13.5625V15.5H15.75V13.5625C15.75 12.4969 14.5687 11.625 13.125 11.625Z" fill="#5B8291"/>
</svg>
