<svg width="27" height="19" viewBox="0 0 27 19" fill="none" xmlns="http://www.w3.org/2000/svg">
<path d="M26.2778 16.5689V4.14222C26.2778 4.14222 14.3214 12.9099 13.1586 13.3649C12.0155 12.9306 0 4.14222 0 4.14222V16.5689C0 18.2948 0.348181 18.64 1.97083 18.64H24.3069C25.9684 18.64 26.2778 18.3369 26.2778 16.5689ZM26.2587 1.7059C26.2587 0.448741 25.9099 0 24.3069 0H1.97083C0.321903 0 0 0.538489 0 1.79496L0.0197083 1.98827C0.0197083 1.98827 11.89 10.5765 13.1586 11.0459C14.4988 10.5005 26.2778 1.79496 26.2778 1.79496L26.2587 1.7059Z" fill="#5B8291"/>
</svg>
