<svg width="170" height="170" viewBox="0 0 170 170" fill="none" xmlns="http://www.w3.org/2000/svg">
<g filter="url(#filter0_d_270_398)">
<circle cx="85" cy="83" r="80" fill="#EBECEE"/>
</g>
<path d="M119.908 131.675L105.404 117.417H50.5833C49.1903 117.417 48.0217 116.945 47.0777 116.001C46.1337 115.057 45.6634 113.89 45.6667 112.5C45.6667 111.107 46.1387 109.938 47.0827 108.994C48.0267 108.05 49.1935 107.58 50.5833 107.583H55.5V73.1666C55.5 72.1833 55.541 71.2606 55.6229 70.3986C55.7048 69.5365 55.8278 68.6564 55.9916 67.7583L36.325 48.0916C35.4236 47.1903 34.9729 46.043 34.9729 44.65C34.9729 43.2569 35.4236 42.1097 36.325 41.2083C37.2264 40.3069 38.3736 39.8562 39.7667 39.8562C41.1597 39.8562 42.3069 40.3069 43.2083 41.2083L126.792 124.792C127.693 125.693 128.144 126.84 128.144 128.233C128.144 129.626 127.693 130.774 126.792 131.675C125.808 132.658 124.661 133.15 123.35 133.15C122.039 133.15 120.892 132.658 119.908 131.675ZM85 132.167C82.2958 132.167 79.9801 131.205 78.0527 129.281C76.1254 127.357 75.1634 125.041 75.1667 122.333H94.8333C94.8333 125.037 93.8697 127.353 91.9423 129.281C90.015 131.208 87.7009 132.17 85 132.167ZM114.5 98.4875L66.3167 50.3041C67.9555 49.075 69.7173 47.9491 71.6021 46.9264C73.4868 45.9037 75.4944 45.1449 77.625 44.65V41.2083C77.625 39.1597 78.3428 37.4192 79.7785 35.9868C81.2142 34.5544 82.9547 33.8366 85 33.8333C87.0486 33.8333 88.7907 34.5511 90.2264 35.9868C91.6621 37.4225 92.3783 39.163 92.375 41.2083V44.65C98.7667 46.2889 104.052 49.7092 108.231 54.9111C112.41 60.1129 114.5 66.1981 114.5 73.1666V98.4875Z" fill="#5B8291"/>
<defs>
<filter id="filter0_d_270_398" x="0" y="0" width="170" height="170" filterUnits="userSpaceOnUse" color-interpolation-filters="sRGB">
<feFlood flood-opacity="0" result="BackgroundImageFix"/>
<feColorMatrix in="SourceAlpha" type="matrix" values="0 0 0 0 0 0 0 0 0 0 0 0 0 0 0 0 0 0 127 0" result="hardAlpha"/>
<feOffset dy="2"/>
<feGaussianBlur stdDeviation="2.5"/>
<feComposite in2="hardAlpha" operator="out"/>
<feColorMatrix type="matrix" values="0 0 0 0 0 0 0 0 0 0 0 0 0 0 0 0 0 0 0.4 0"/>
<feBlend mode="normal" in2="BackgroundImageFix" result="effect1_dropShadow_270_398"/>
<feBlend mode="normal" in="SourceGraphic" in2="effect1_dropShadow_270_398" result="shape"/>
</filter>
</defs>
</svg>
