<svg width="32" height="36" viewBox="0 0 32 36" fill="none" xmlns="http://www.w3.org/2000/svg">
<path d="M28.4156 11.9109C28.2303 11.7009 28.0097 11.5343 27.7667 11.4209C27.5237 11.3074 27.2631 11.2493 27 11.25H23V10.125C23 8.03642 22.2625 6.03338 20.9497 4.55653C19.637 3.07969 17.8565 2.25 16 2.25C14.1435 2.25 12.363 3.07969 11.0503 4.55653C9.7375 6.03338 9 8.03642 9 10.125V11.25H5C4.46957 11.25 3.96086 11.4871 3.58579 11.909C3.21071 12.331 3 12.9033 3 13.5V28.6875C3 31.4297 5.0625 33.75 7.5 33.75H24.5C25.679 33.7504 26.8114 33.2318 27.655 32.3051C28.0795 31.8495 28.4176 31.3018 28.6487 30.6952C28.8799 30.0885 28.9994 29.4354 29 28.7754V13.5C29.0008 13.2048 28.9496 12.9124 28.8493 12.6396C28.749 12.3669 28.6016 12.1192 28.4156 11.9109ZM11 10.125C11 8.63316 11.5268 7.20242 12.4645 6.14752C13.4021 5.09263 14.6739 4.5 16 4.5C17.3261 4.5 18.5979 5.09263 19.5355 6.14752C20.4732 7.20242 21 8.63316 21 10.125V11.25H11V10.125Z" fill="#5B8291"/>
</svg>
