<svg width="32" height="28" viewBox="0 0 32 28" fill="none" xmlns="http://www.w3.org/2000/svg">
<path d="M15.5757 7.26393L5.33375 16.7556V26.9999C5.33375 27.2651 5.4274 27.5195 5.59408 27.7071C5.76077 27.8946 5.98685 28 6.22258 28L12.4477 27.9819C12.6826 27.9806 12.9075 27.8746 13.0733 27.6872C13.239 27.4998 13.332 27.2461 13.332 26.9818V20.9992C13.332 20.734 13.4257 20.4796 13.5924 20.292C13.759 20.1045 13.9851 19.9991 14.2208 19.9991H17.7761C18.0119 19.9991 18.2379 20.1045 18.4046 20.292C18.5713 20.4796 18.665 20.734 18.665 20.9992V26.9774C18.6646 27.109 18.6873 27.2394 18.7318 27.3611C18.7763 27.4828 18.8417 27.5934 18.9243 27.6866C19.0069 27.7798 19.105 27.8537 19.213 27.9042C19.321 27.9547 19.4368 27.9806 19.5538 27.9806L25.7766 28C26.0124 28 26.2384 27.8946 26.4051 27.7071C26.5718 27.5195 26.6654 27.2651 26.6654 26.9999V16.7487L16.4257 7.26393C16.3053 7.15475 16.1553 7.09521 16.0007 7.09521C15.8461 7.09521 15.6961 7.15475 15.5757 7.26393V7.26393ZM31.7539 13.7153L27.1099 9.40792V0.750084C27.1099 0.551149 27.0396 0.360363 26.9146 0.219695C26.7896 0.0790266 26.62 0 26.4432 0H23.3324C23.1556 0 22.986 0.0790266 22.861 0.219695C22.736 0.360363 22.6658 0.551149 22.6658 0.750084V5.28872L17.6922 0.684451C17.215 0.242514 16.616 0.000883439 15.9979 0.000883439C15.3798 0.000883439 14.7809 0.242514 14.3036 0.684451L0.241925 13.7153C0.174423 13.7781 0.118576 13.8552 0.0775751 13.9423C0.0365738 14.0293 0.0112218 14.1246 0.00296764 14.2227C-0.00528651 14.3208 0.00371897 14.4198 0.0294695 14.514C0.0552201 14.6082 0.097211 14.6957 0.153043 14.7716L1.5696 16.7094C1.62528 16.7855 1.69377 16.8486 1.77114 16.895C1.84851 16.9413 1.93325 16.9701 2.02051 16.9795C2.10776 16.989 2.19582 16.979 2.27963 16.9501C2.36345 16.9213 2.44139 16.8741 2.50897 16.8113L15.5757 4.70115C15.6961 4.59197 15.8461 4.53243 16.0007 4.53243C16.1553 4.53243 16.3053 4.59197 16.4257 4.70115L29.493 16.8113C29.5605 16.8741 29.6383 16.9213 29.722 16.9503C29.8057 16.9793 29.8936 16.9894 29.9808 16.9801C30.068 16.9708 30.1527 16.9423 30.2301 16.8962C30.3075 16.85 30.376 16.7872 30.4318 16.7112L31.8484 14.7735C31.9042 14.6972 31.946 14.6092 31.9714 14.5146C31.9969 14.42 32.0054 14.3207 31.9967 14.2223C31.9879 14.124 31.9619 14.0286 31.9203 13.9415C31.8786 13.8545 31.8221 13.7776 31.7539 13.7153V13.7153Z" fill="#30444F" fill-opacity="0.7"/>
</svg>
