<svg width="38" height="39" viewBox="0 0 38 39" fill="none" xmlns="http://www.w3.org/2000/svg">
<g filter="url(#filter0_d_89_141)">
<g filter="url(#filter1_d_89_141)">
<circle cx="19" cy="15" r="15" fill="white"/>
</g>
<path d="M10.5 15C10.5 10.2664 14.5298 6.42859 19.5 6.42859C24.4703 6.42859 28.5 10.2664 28.5 15C28.5 19.7336 24.4703 23.5714 19.5 23.5714C18.0256 23.5734 16.5734 23.229 15.2723 22.5686L11.6948 23.5379C11.5342 23.5813 11.3643 23.5831 11.2027 23.5431C11.0411 23.5031 10.8937 23.4228 10.7757 23.3103C10.6576 23.1979 10.5732 23.0575 10.5312 22.9036C10.4892 22.7497 10.4911 22.588 10.5368 22.435L11.5538 19.0279C10.8599 17.7883 10.4979 16.4048 10.5 15ZM16.125 13.3929C16.125 13.6886 16.377 13.9286 16.6875 13.9286H22.3125C22.4617 13.9286 22.6048 13.8721 22.7103 13.7717C22.8157 13.6712 22.875 13.535 22.875 13.3929C22.875 13.2508 22.8157 13.1145 22.7103 13.0141C22.6048 12.9136 22.4617 12.8572 22.3125 12.8572H16.6875C16.5383 12.8572 16.3953 12.9136 16.2898 13.0141C16.1843 13.1145 16.125 13.2508 16.125 13.3929ZM16.6875 16.0714C16.5383 16.0714 16.3953 16.1279 16.2898 16.2284C16.1843 16.3288 16.125 16.4651 16.125 16.6072C16.125 16.7492 16.1843 16.8855 16.2898 16.986C16.3953 17.0864 16.5383 17.1429 16.6875 17.1429H20.0625C20.2117 17.1429 20.3548 17.0864 20.4603 16.986C20.5657 16.8855 20.625 16.7492 20.625 16.6072C20.625 16.4651 20.5657 16.3288 20.4603 16.2284C20.3548 16.1279 20.2117 16.0714 20.0625 16.0714H16.6875Z" fill="#5B8291"/>
</g>
<defs>
<filter id="filter0_d_89_141" x="0" y="0" width="38" height="39" filterUnits="userSpaceOnUse" color-interpolation-filters="sRGB">
<feFlood flood-opacity="0" result="BackgroundImageFix"/>
<feColorMatrix in="SourceAlpha" type="matrix" values="0 0 0 0 0 0 0 0 0 0 0 0 0 0 0 0 0 0 127 0" result="hardAlpha"/>
<feOffset dy="5"/>
<feGaussianBlur stdDeviation="2"/>
<feComposite in2="hardAlpha" operator="out"/>
<feColorMatrix type="matrix" values="0 0 0 0 0 0 0 0 0 0 0 0 0 0 0 0 0 0 0.3 0"/>
<feBlend mode="normal" in2="BackgroundImageFix" result="effect1_dropShadow_89_141"/>
<feBlend mode="normal" in="SourceGraphic" in2="effect1_dropShadow_89_141" result="shape"/>
</filter>
<filter id="filter1_d_89_141" x="3" y="0" width="32" height="32" filterUnits="userSpaceOnUse" color-interpolation-filters="sRGB">
<feFlood flood-opacity="0" result="BackgroundImageFix"/>
<feColorMatrix in="SourceAlpha" type="matrix" values="0 0 0 0 0 0 0 0 0 0 0 0 0 0 0 0 0 0 127 0" result="hardAlpha"/>
<feOffset dy="1"/>
<feGaussianBlur stdDeviation="0.5"/>
<feComposite in2="hardAlpha" operator="out"/>
<feColorMatrix type="matrix" values="0 0 0 0 0 0 0 0 0 0 0 0 0 0 0 0 0 0 0.25 0"/>
<feBlend mode="normal" in2="BackgroundImageFix" result="effect1_dropShadow_89_141"/>
<feBlend mode="normal" in="SourceGraphic" in2="effect1_dropShadow_89_141" result="shape"/>
</filter>
</defs>
</svg>
