<svg width="31" height="28" viewBox="0 0 31 28" fill="none" xmlns="http://www.w3.org/2000/svg">
<path d="M1.57382e-05 13.7143C1.57382e-05 6.14057 6.90816 0 15.4286 0C23.949 0 30.8572 6.14057 30.8572 13.7143C30.8572 21.288 23.949 27.4286 15.4286 27.4286C12.901 27.4318 10.4116 26.8806 8.18102 25.824L2.04816 27.3749C1.77286 27.4444 1.48166 27.4473 1.20467 27.3833C0.927681 27.3193 0.67494 27.1907 0.47257 27.0108C0.270199 26.8309 0.125538 26.6063 0.0535382 26.3601C-0.018462 26.1138 -0.01519 25.855 0.0630158 25.6103L1.80644 20.1589C0.616887 18.1755 -0.00360301 15.9619 1.57382e-05 13.7143ZM9.64287 11.1429C9.64287 11.616 10.0749 12 10.6072 12H20.25C20.5058 12 20.751 11.9097 20.9319 11.7489C21.1127 11.5882 21.2143 11.3702 21.2143 11.1429C21.2143 10.9155 21.1127 10.6975 20.9319 10.5368C20.751 10.376 20.5058 10.2857 20.25 10.2857H10.6072C10.3514 10.2857 10.1061 10.376 9.92531 10.5368C9.74447 10.6975 9.64287 10.9155 9.64287 11.1429ZM10.6072 15.4286C10.3514 15.4286 10.1061 15.5189 9.92531 15.6796C9.74447 15.8404 9.64287 16.0584 9.64287 16.2857C9.64287 16.513 9.74447 16.7311 9.92531 16.8918C10.1061 17.0526 10.3514 17.1429 10.6072 17.1429H16.3929C16.6486 17.1429 16.8939 17.0526 17.0747 16.8918C17.2556 16.7311 17.3572 16.513 17.3572 16.2857C17.3572 16.0584 17.2556 15.8404 17.0747 15.6796C16.8939 15.5189 16.6486 15.4286 16.3929 15.4286H10.6072Z" fill="#30444F" fill-opacity="0.7"/>
</svg>
