<svg width="26" height="28" viewBox="0 0 26 28" fill="none" xmlns="http://www.w3.org/2000/svg">
<path d="M14.0834 9.33335C14.0834 10.571 13.6268 11.758 12.8142 12.6332C12.0015 13.5084 10.8993 14 9.75004 14C8.60077 14 7.49857 13.5084 6.68591 12.6332C5.87325 11.758 5.41671 10.571 5.41671 9.33335C5.41671 8.09568 5.87325 6.90869 6.68591 6.03352C7.49857 5.15835 8.60077 4.66669 9.75004 4.66669C10.8993 4.66669 12.0015 5.15835 12.8142 6.03352C13.6268 6.90869 14.0834 8.09568 14.0834 9.33335ZM18.4167 21V23.3334H1.08337V21C1.08337 18.4217 4.96171 16.3334 9.75004 16.3334C14.5384 16.3334 18.4167 18.4217 18.4167 21ZM22.2084 16.9167V18.6667H20.5834V16.9167H22.2084ZM20.0417 11.0834H18.4167V10.5C18.4167 9.57176 18.7591 8.68152 19.3686 8.02515C19.9781 7.36877 20.8048 7.00002 21.6667 7.00002C22.5287 7.00002 23.3553 7.36877 23.9648 8.02515C24.5743 8.68152 24.9167 9.57176 24.9167 10.5C24.9167 11.6317 24.375 12.6934 23.5192 13.3117L23.1942 13.5334C22.5767 14 22.2084 14.7117 22.2084 15.5167V15.75H20.5834V15.5167C20.5834 14.1284 21.2334 12.8334 22.3059 12.075L22.62 11.8534C23.0425 11.55 23.2917 11.0484 23.2917 10.5C23.2917 10.0359 23.1205 9.59077 22.8158 9.26258C22.511 8.93439 22.0977 8.75002 21.6667 8.75002C21.2357 8.75002 20.8224 8.93439 20.5177 9.26258C20.2129 9.59077 20.0417 10.0359 20.0417 10.5V11.0834Z" fill="#5B8291"/>
</svg>
