<svg width="32" height="28" viewBox="0 0 32 28" fill="none" xmlns="http://www.w3.org/2000/svg">
<path d="M16 0C18.1217 0 20.1566 0.737497 21.6569 2.05025C23.1571 3.36301 24 5.14348 24 7C24 8.85652 23.1571 10.637 21.6569 11.9497C20.1566 13.2625 18.1217 14 16 14C13.8783 14 11.8434 13.2625 10.3431 11.9497C8.84285 10.637 8 8.85652 8 7C8 5.14348 8.84285 3.36301 10.3431 2.05025C11.8434 0.737497 13.8783 0 16 0ZM16 17.5C24.84 17.5 32 20.6325 32 24.5V28H0V24.5C0 20.6325 7.16 17.5 16 17.5Z" fill="#30444F" fill-opacity="0.7"/>
</svg>
