<svg width="27" height="26" viewBox="0 0 27 26" fill="none" xmlns="http://www.w3.org/2000/svg">
<path d="M13.1389 0C9.65424 0 6.31231 1.35958 3.84829 3.77965C1.38427 6.19971 0 9.48203 0 12.9045C0.000464909 13.3452 0.0248307 13.7855 0.0729938 14.2236C0.414592 17.3932 1.93841 20.3265 4.35086 22.4584C6.76331 24.5902 9.8937 25.7698 13.1389 25.7698C16.3841 25.7698 19.5145 24.5902 21.9269 22.4584C24.3394 20.3265 25.8632 17.3932 26.2048 14.2236C26.2529 13.7855 26.2773 13.3452 26.2778 12.9045C26.2778 9.48203 24.8935 6.19971 22.4295 3.77965C19.9655 1.35958 16.6235 0 13.1389 0V0ZM21.0514 19.2421C21.0368 19.2421 20.9638 19.3568 20.9492 19.3568C19.9935 20.4789 18.7988 21.3814 17.4493 22.0007C16.0998 22.62 14.6284 22.941 13.1389 22.941C11.6494 22.941 10.178 22.62 8.82847 22.0007C7.47898 21.3814 6.28426 20.4789 5.32855 19.3568C5.31395 19.3568 5.24096 19.2421 5.22636 19.2421C5.14619 19.1278 5.10063 18.9936 5.09497 18.8549C5.09769 18.7045 5.14651 18.5584 5.23505 18.4356C5.32359 18.3128 5.44775 18.2191 5.59133 18.1667C6.67164 17.8082 7.70815 17.4641 8.00012 17.3924C7.99334 17.3601 7.99374 17.3267 8.0013 17.2945C8.00885 17.2624 8.02339 17.2322 8.04392 17.206C8.0822 17.0672 8.16292 16.9433 8.27517 16.851C8.38743 16.7587 8.52582 16.7025 8.67167 16.6898L10.5257 16.5465C10.5101 16.1546 10.4158 15.7697 10.2483 15.4137V15.3994C10.0919 14.9944 9.87008 14.6167 9.59139 14.281C8.82795 13.3028 8.42173 12.1009 8.43809 10.8685C8.35735 9.60113 8.78627 8.35329 9.6326 7.39335C10.4789 6.43341 11.6751 5.83806 12.9637 5.73534H13.3141C14.6027 5.83806 15.7988 6.43341 16.6452 7.39335C17.4915 8.35329 17.9204 9.60113 17.8397 10.8685C17.856 12.1009 17.4498 13.3028 16.6864 14.281C16.4077 14.6167 16.1859 14.9944 16.0294 15.3994V15.4137C15.862 15.7697 15.7677 16.1546 15.7521 16.5465L17.6061 16.6898C17.752 16.7025 17.8903 16.7587 18.0026 16.851C18.1149 16.9433 18.1956 17.0672 18.2339 17.206C18.2544 17.2322 18.2689 17.2624 18.2765 17.2945C18.284 17.3267 18.2844 17.3601 18.2777 17.3924C18.5696 17.4641 19.6061 17.8082 20.6865 18.1667C20.7935 18.2004 20.8909 18.2585 20.9709 18.3361C21.0508 18.4137 21.111 18.5088 21.1465 18.6135C21.1821 18.7182 21.192 18.8297 21.1755 18.939C21.1589 19.0482 21.1164 19.152 21.0514 19.2421V19.2421Z" fill="#5B8291"/>
<circle cx="21" cy="6" r="4" fill="#EBECEE"/>
<path d="M23.1112 6.33335H21.4445V8.00002C21.4445 8.08843 21.4094 8.17321 21.3469 8.23572C21.2844 8.29823 21.1996 8.33335 21.1112 8.33335C21.0228 8.33335 20.938 8.29823 20.8755 8.23572C20.813 8.17321 20.7778 8.08843 20.7778 8.00002V6.33335H19.1112C19.0228 6.33335 18.938 6.29823 18.8755 6.23572C18.813 6.17321 18.7778 6.08843 18.7778 6.00002C18.7778 5.91161 18.813 5.82683 18.8755 5.76432C18.938 5.70181 19.0228 5.66669 19.1112 5.66669H20.7778V4.00002C20.7778 3.91161 20.813 3.82683 20.8755 3.76432C20.938 3.70181 21.0228 3.66669 21.1112 3.66669C21.1996 3.66669 21.2844 3.70181 21.3469 3.76432C21.4094 3.82683 21.4445 3.91161 21.4445 4.00002V5.66669H23.1112C23.1996 5.66669 23.2844 5.70181 23.3469 5.76432C23.4094 5.82683 23.4445 5.91161 23.4445 6.00002C23.4445 6.08843 23.4094 6.17321 23.3469 6.23572C23.2844 6.29823 23.1996 6.33335 23.1112 6.33335Z" fill="#5B8291"/>
</svg>
