<svg width="25" height="25" viewBox="0 0 25 25" fill="none" xmlns="http://www.w3.org/2000/svg">
<g clip-path="url(#clip0_121_2154)">
<mask id="mask0_121_2154" style="mask-type:luminance" maskUnits="userSpaceOnUse" x="0" y="0" width="25" height="25">
<path d="M12.5 22.9167C13.8682 22.9184 15.2233 22.6498 16.4873 22.1262C17.7514 21.6026 18.8995 20.8343 19.8657 19.8656C20.8344 18.8994 21.6027 17.7513 22.1263 16.4873C22.6499 15.2232 22.9185 13.8682 22.9167 12.5C22.9185 11.1318 22.6498 9.77675 22.1262 8.51271C21.6026 7.24867 20.8344 6.10056 19.8657 5.13436C18.8995 4.16563 17.7514 3.39738 16.4873 2.87378C15.2233 2.35018 13.8682 2.08155 12.5 2.08332C11.1319 2.08158 9.77681 2.35022 8.51277 2.87382C7.24873 3.39742 6.10063 4.16565 5.13442 5.13436C4.16571 6.10056 3.39748 7.24867 2.87388 8.51271C2.35028 9.77675 2.08164 11.1318 2.08338 12.5C2.08161 13.8682 2.35024 15.2232 2.87384 16.4873C3.39744 17.7513 4.16569 18.8994 5.13442 19.8656C6.10063 20.8343 7.24873 21.6026 8.51277 22.1262C9.77681 22.6498 11.1319 22.9184 12.5 22.9167Z" fill="white" stroke="white" stroke-width="4" stroke-linejoin="round"/>
<path d="M8.33337 12.5L11.4584 15.625L17.7084 9.375" stroke="black" stroke-width="4" stroke-linecap="round" stroke-linejoin="round"/>
</mask>
<g mask="url(#mask0_121_2154)">
<path d="M0 0H25V25H0V0Z" fill="#EBECEE"/>
</g>
</g>
<defs>
<clipPath id="clip0_121_2154">
<rect width="25" height="25" fill="white"/>
</clipPath>
</defs>
</svg>
