<svg width="20" height="26" viewBox="0 0 20 26" fill="none" xmlns="http://www.w3.org/2000/svg">
<path d="M8.97229 25.4754C1.40469 14.7789 0 13.6811 0 9.75C0 4.36521 4.47714 0 10 0C15.5229 0 20 4.36521 20 9.75C20 13.6811 18.5953 14.7789 11.0277 25.4754C10.5311 26.1749 9.46885 26.1748 8.97229 25.4754ZM10 13.8125C12.3012 13.8125 14.1667 11.9937 14.1667 9.75C14.1667 7.50633 12.3012 5.6875 10 5.6875C7.6988 5.6875 5.83333 7.50633 5.83333 9.75C5.83333 11.9937 7.6988 13.8125 10 13.8125Z" fill="#5B8291"/>
</svg>
