<svg width="30" height="26" viewBox="0 0 30 26" fill="none" xmlns="http://www.w3.org/2000/svg">
<path d="M5.2375 4.84248C4.3375 5.18915 3.75 5.96915 3.75 6.82498V11.9166C3.75 17.9291 8.55 23.5516 15 24.9166C21.45 23.5516 26.25 17.9291 26.25 11.9166V6.82498C26.25 5.96915 25.6625 5.18915 24.7625 4.84248L16.0125 1.47331C15.3625 1.22415 14.625 1.22415 13.9875 1.47331L5.2375 4.84248ZM15 7.58331C15.6875 7.58331 16.25 8.07081 16.25 8.66665C16.25 9.26248 15.6875 9.74998 15 9.74998C14.3125 9.74998 13.75 9.26248 13.75 8.66665C13.75 8.07081 14.3125 7.58331 15 7.58331ZM15 11.9166C15.6875 11.9166 16.25 12.4041 16.25 13V17.3333C16.25 17.9291 15.6875 18.4166 15 18.4166C14.3125 18.4166 13.75 17.9291 13.75 17.3333V13C13.75 12.4041 14.3125 11.9166 15 11.9166Z" fill="#5B8291"/>
</svg>
