<svg width="27" height="24" viewBox="0 0 27 24" fill="none" xmlns="http://www.w3.org/2000/svg">
<path d="M14.6658 4.19237C14.1645 4.13581 13.6552 4.1034 13.1389 4.09534C10.8828 4.10577 8.54416 4.6782 6.33048 5.77506C4.68684 6.62301 3.08576 7.8201 1.69529 9.29674C1.0124 10.0505 0.140827 11.142 0 12.3065C0.0166426 13.3152 1.05446 14.5603 1.69529 15.3163C2.99917 16.7349 4.55856 17.8977 6.33048 18.8379C6.3907 18.8684 6.45113 18.8986 6.5117 18.9283L4.86777 21.9229L7.10149 23.3L19.1765 1.37072L17.0264 0L14.6658 4.19237ZM19.7645 5.68805L18.1237 8.65428C18.8785 9.6772 19.3266 10.9386 19.3266 12.3065C19.3266 15.7158 16.556 18.4799 13.1373 18.4799C12.9895 18.4799 12.8463 18.4633 12.701 18.4531L11.6152 20.4139C12.116 20.4698 12.6223 20.5106 13.1389 20.5176C15.3971 20.5071 17.7344 19.928 19.9457 18.8379C21.5893 17.99 23.192 16.7929 24.5825 15.3163C25.2654 14.5625 26.1369 13.471 26.2778 12.3065C26.2611 11.2977 25.2233 10.0527 24.5825 9.29671C23.2786 7.87807 21.7176 6.71525 19.9457 5.77501C19.8859 5.74477 19.8247 5.71757 19.7645 5.68805V5.68805ZM13.1373 6.13309C13.2872 6.13309 13.4359 6.13935 13.5832 6.14981L12.3113 8.44685C10.5263 8.82434 9.18696 10.4085 9.18696 12.3048C9.18696 12.7812 9.27107 13.2372 9.42593 13.6599C9.42611 13.6604 9.42576 13.6612 9.42593 13.6616L8.15085 15.9654C7.39424 14.9415 6.94794 13.6759 6.94794 12.3065C6.94796 8.89714 9.71858 6.13307 13.1373 6.13309V6.13309ZM16.8374 10.9764L13.9713 16.1561C15.7467 15.7715 17.0764 14.1945 17.0764 12.3048C17.0764 11.8372 16.9869 11.3925 16.8374 10.9764V10.9764Z" fill="#5B8291"/>
</svg>
